<svg xmlns="http://www.w3.org/2000/svg" version="1.1" xmlns:xlink="http://www.w3.org/1999/xlink" xmlns:svgjs="http://svgjs.dev/svgjs" width="1000" height="1000" viewBox="0 0 1000 1000"><rect width="1000" height="1000" fill="#000000"></rect><g transform="matrix(0.7,0,0,0.7,149.57575757575756,423.17115566766887)"><svg viewBox="0 0 396 87" data-background-color="#d2d6dc" preserveAspectRatio="xMidYMid meet" height="219" width="1000" xmlns="http://www.w3.org/2000/svg" xmlns:xlink="http://www.w3.org/1999/xlink"><g id="tight-bounds" transform="matrix(1,0,0,1,0.2400000000000091,0.10149678351476155)"><svg viewBox="0 0 395.52 86.79700643297049" height="86.79700643297049" width="395.52"><g><svg viewBox="0 0 559.1554110278364 122.70685631071345" height="86.79700643297049" width="395.52"><g><rect width="6.66159192994061" height="122.70685631071345" x="139.53509676820832" y="0" fill="#ffffff" opacity="1" stroke-width="0" stroke="transparent" fill-opacity="1" class="rect-o-0" data-fill-palette-color="primary" rx="1%" id="o-0" data-palette-color="#313638"></rect></g><g transform="matrix(1,0,0,1,163.6354110278364,0.3052409360962969)"><svg viewBox="0 0 395.52 122.09637443852085" height="122.09637443852085" width="395.52"><g><svg viewBox="0 0 395.52 122.09637443852085" height="122.09637443852085" width="395.52"><g><svg viewBox="0 0 395.52 80.01885582690117" height="80.01885582690117" width="395.52"><g transform="matrix(1,0,0,1,0,0)"><svg width="395.52" viewBox="4.129999160766602 -35.54999923706055 192.94000244140625 36.040000915527344" height="80.01885582690117" data-palette-color="#313638"><svg></svg><g class="undefined-text-0" data-fill-palette-color="primary" id="text-0"><path xmlns="http://www.w3.org/2000/svg" d="M16.46 0h-12.33v-35.55h11.62c3.853 0 6.753 0.8 8.7 2.4 1.947 1.593 2.92 3.953 2.92 7.08v0c0 1.66-0.473 3.127-1.42 4.4-0.94 1.28-2.227 2.27-3.86 2.97v0c1.927 0.533 3.447 1.553 4.56 3.06 1.113 1.507 1.67 3.303 1.67 5.39v0c0 3.187-1.033 5.693-3.1 7.52-2.067 1.82-4.987 2.73-8.76 2.73zM16.63-16.63h-7.82v12.8h7.74c2.18 0 3.903-0.567 5.17-1.7 1.26-1.133 1.89-2.693 1.89-4.68v0c0-4.28-2.327-6.42-6.98-6.42zM8.81-31.69v11.3h7.08c2.053 0 3.693-0.51 4.92-1.53 1.233-1.027 1.85-2.42 1.85-4.18v0c0-1.953-0.57-3.373-1.71-4.26-1.14-0.887-2.873-1.33-5.2-1.33v0zM56.01 0l-7.72-14.38h-8.35v14.38h-4.71v-35.55h11.77c4 0 7.08 0.913 9.24 2.74 2.153 1.82 3.23 4.473 3.23 7.96v0c0 2.213-0.597 4.14-1.79 5.78-1.2 1.647-2.863 2.877-4.99 3.69v0l8.35 15.09v0.29zM39.94-31.69v13.48h7.2c2.327 0 4.18-0.603 5.56-1.81 1.373-1.207 2.06-2.817 2.06-4.83v0c0-2.2-0.653-3.887-1.96-5.06-1.313-1.173-3.207-1.767-5.68-1.78v0zM86.35-35.55h4.71v24.17c-0.013 3.353-1.067 6.097-3.16 8.23-2.087 2.133-4.923 3.33-8.51 3.59v0l-1.24 0.05c-3.893 0-6.993-1.05-9.3-3.15-2.313-2.1-3.487-4.99-3.52-8.67v0-24.22h4.64v24.08c0 2.567 0.707 4.563 2.12 5.99 1.42 1.427 3.44 2.14 6.06 2.14v0c2.653 0 4.683-0.71 6.09-2.13 1.407-1.413 2.11-3.407 2.11-5.98v0zM125.78-35.55v35.55h-4.71v-16.43h-17.92v16.43h-4.69v-35.55h4.69v15.29h17.92v-15.29zM161.43-35.55v35.55h-4.72v-16.43h-17.92v16.43h-4.68v-35.55h4.68v15.29h17.92v-15.29zM197.07-35.55v35.55h-4.71v-16.43h-17.92v16.43h-4.69v-35.55h4.69v15.29h17.92v-15.29z" fill="#ffffff" fill-rule="nonzero" stroke="none" stroke-width="1" stroke-linecap="butt" stroke-linejoin="miter" stroke-miterlimit="10" stroke-dasharray="" stroke-dashoffset="0" font-family="none" font-weight="none" font-size="none" text-anchor="none" style="mix-blend-mode: normal" data-fill-palette-color="primary" opacity="1"></path></g></svg></g></svg></g><g transform="matrix(1,0,0,1,0,97.45757815658864)"><svg viewBox="0 0 232.209792 24.63879628193222" height="24.63879628193222" width="232.209792"><g transform="matrix(1,0,0,1,0,0)"><svg width="232.209792" viewBox="7.079999923706055 -36.88999938964844 352.2400207519531 37.380001068115234" height="24.63879628193222" data-palette-color="#313638"><path d="M17.92-31.52L11.23-31.52 11.23-19.87Q11.69-19.9 12.84-19.91 13.99-19.92 14.62-19.93 15.26-19.95 16.41-20.03 17.55-20.12 18.25-20.23 18.95-20.34 19.93-20.57 20.92-20.8 21.55-21.11 22.17-21.41 22.86-21.89 23.56-22.36 23.95-22.95 24.34-23.54 24.6-24.35 24.85-25.17 24.85-26.15L24.85-26.15Q24.85-26.88 24.71-27.54 24.56-28.2 24.1-28.96 23.63-29.71 22.9-30.25 22.17-30.79 20.89-31.15 19.6-31.52 17.92-31.52L17.92-31.52ZM11.23-16.65L11.23-16.65 11.23-3.66 17.7-3.66Q18.58-3.66 19.18-3.67 19.78-3.69 20.9-3.82 22.02-3.96 22.81-4.19 23.61-4.42 24.58-4.9 25.56-5.37 26.16-6.03 26.76-6.69 27.17-7.73 27.59-8.76 27.59-10.08L27.59-10.08Q27.59-13.33 25.07-15.16 22.56-16.99 18.31-16.99L18.31-16.99Q17.85-16.99 11.23-16.65ZM7.08 0L7.08-34.69 19.31-34.69Q21.09-34.69 22.57-34.31 24.05-33.94 25.01-33.35 25.98-32.76 26.72-31.96 27.47-31.15 27.86-30.4 28.25-29.64 28.49-28.78 28.74-27.93 28.8-27.38 28.86-26.83 28.86-26.34L28.86-26.34Q28.86-24.22 27.42-22.11 25.98-20 24.37-19.38L24.37-19.38Q27.59-18.8 29.65-16.27 31.71-13.75 31.71-10.52L31.71-10.52Q31.71-9.77 31.58-8.94 31.45-8.11 31.05-7.06 30.66-6.01 30.05-5.05 29.44-4.1 28.39-3.16 27.34-2.22 25.99-1.54 24.63-0.85 22.67-0.43 20.7 0 18.36 0L18.36 0 7.08 0ZM41.97-24.12L42.72-22.31Q45.77-24.58 49.46-24.58L49.46-24.58Q52-24.58 54.07-23.63L54.07-23.63 52.85-20.43Q50.95-21.17 48.9-21.17L48.9-21.17Q45.85-21.17 43.16-19.48L43.16-19.48 43.16 0 39.16 0 39.16-24.12 41.97-24.12ZM74.65-4.98L74.65-24.12 78.66-24.12 78.66 0 75.85 0 75-2.03Q70.38 0.49 66.47 0.49L66.47 0.49Q64.5 0.49 63.03-0.13 61.57-0.76 60.76-1.68 59.96-2.61 59.47-4.04 58.98-5.47 58.85-6.76 58.71-8.06 58.71-9.72L58.71-9.72 58.71-24.12 62.71-24.12 62.71-9.42Q62.71-3.1 68.21-3.1L68.21-3.1Q71.04-3.1 74.65-4.98L74.65-4.98ZM98.14-21L98.14-21Q95.28-21 91.69-19.12L91.69-19.12 91.69 0 87.69 0 87.69-36.89 91.69-36.89 91.69-22.29Q95.96-24.56 99.7-24.56L99.7-24.56Q101.31-24.56 102.59-24.15 103.87-23.73 104.7-23.11 105.53-22.49 106.13-21.5 106.73-20.51 107.04-19.64 107.34-18.77 107.5-17.58 107.66-16.38 107.7-15.63 107.73-14.87 107.73-13.84L107.73-13.84 107.73 0 103.63 0 103.63-14.58Q103.63-21 98.14-21ZM143.71-31.52L137.02-31.52 137.02-19.87Q137.49-19.9 138.63-19.91 139.78-19.92 140.42-19.93 141.05-19.95 142.2-20.03 143.35-20.12 144.04-20.23 144.74-20.34 145.73-20.57 146.72-20.8 147.34-21.11 147.96-21.41 148.66-21.89 149.35-22.36 149.74-22.95 150.13-23.54 150.39-24.35 150.65-25.17 150.65-26.15L150.65-26.15Q150.65-26.88 150.5-27.54 150.35-28.2 149.89-28.96 149.43-29.71 148.69-30.25 147.96-30.79 146.68-31.15 145.4-31.52 143.71-31.52L143.71-31.52ZM137.02-16.65L137.02-16.65 137.02-3.66 143.49-3.66Q144.37-3.66 144.97-3.67 145.57-3.69 146.69-3.82 147.81-3.96 148.61-4.19 149.4-4.42 150.38-4.9 151.35-5.37 151.95-6.03 152.55-6.69 152.97-7.73 153.38-8.76 153.38-10.08L153.38-10.08Q153.38-13.33 150.87-15.16 148.35-16.99 144.1-16.99L144.1-16.99Q143.64-16.99 137.02-16.65ZM132.87 0L132.87-34.69 145.1-34.69Q146.89-34.69 148.36-34.31 149.84-33.94 150.81-33.35 151.77-32.76 152.51-31.96 153.26-31.15 153.65-30.4 154.04-29.64 154.28-28.78 154.53-27.93 154.59-27.38 154.65-26.83 154.65-26.34L154.65-26.34Q154.65-24.22 153.21-22.11 151.77-20 150.16-19.38L150.16-19.38Q153.38-18.8 155.44-16.27 157.51-13.75 157.51-10.52L157.51-10.52Q157.51-9.77 157.37-8.94 157.24-8.11 156.85-7.06 156.46-6.01 155.85-5.05 155.24-4.1 154.19-3.16 153.14-2.22 151.78-1.54 150.43-0.85 148.46-0.43 146.5 0 144.15 0L144.15 0 132.87 0ZM167.76-24.12L168.52-22.31Q171.57-24.58 175.25-24.58L175.25-24.58Q177.79-24.58 179.87-23.63L179.87-23.63 178.65-20.43Q176.74-21.17 174.69-21.17L174.69-21.17Q171.64-21.17 168.95-19.48L168.95-19.48 168.95 0 164.95 0 164.95-24.12 167.76-24.12ZM200.45-4.98L200.45-24.12 204.45-24.12 204.45 0 201.64 0 200.79-2.03Q196.17 0.49 192.27 0.49L192.27 0.49Q190.29 0.49 188.83-0.13 187.36-0.76 186.55-1.68 185.75-2.61 185.26-4.04 184.77-5.47 184.64-6.76 184.5-8.06 184.5-9.72L184.5-9.72 184.5-24.12 188.51-24.12 188.51-9.42Q188.51-3.1 194-3.1L194-3.1Q196.83-3.1 200.45-4.98L200.45-4.98ZM223.93-21L223.93-21Q221.07-21 217.48-19.12L217.48-19.12 217.48 0 213.48 0 213.48-36.89 217.48-36.89 217.48-22.29Q221.76-24.56 225.49-24.56L225.49-24.56Q227.1-24.56 228.39-24.15 229.67-23.73 230.5-23.11 231.33-22.49 231.93-21.5 232.52-20.51 232.83-19.64 233.13-18.77 233.29-17.58 233.45-16.38 233.49-15.63 233.52-14.87 233.52-13.84L233.52-13.84 233.52 0 229.42 0 229.42-14.58Q229.42-21 223.93-21ZM269.51-31.52L262.82-31.52 262.82-19.87Q263.28-19.9 264.43-19.91 265.58-19.92 266.21-19.93 266.85-19.95 267.99-20.03 269.14-20.12 269.84-20.23 270.53-20.34 271.52-20.57 272.51-20.8 273.13-21.11 273.75-21.41 274.45-21.89 275.15-22.36 275.54-22.95 275.93-23.54 276.18-24.35 276.44-25.17 276.44-26.15L276.44-26.15Q276.44-26.88 276.29-27.54 276.15-28.2 275.68-28.96 275.22-29.71 274.49-30.25 273.75-30.79 272.47-31.15 271.19-31.52 269.51-31.52L269.51-31.52ZM262.82-16.65L262.82-16.65 262.82-3.66 269.29-3.66Q270.17-3.66 270.76-3.67 271.36-3.69 272.48-3.82 273.61-3.96 274.4-4.19 275.19-4.42 276.17-4.9 277.15-5.37 277.75-6.03 278.34-6.69 278.76-7.73 279.17-8.76 279.17-10.08L279.17-10.08Q279.17-13.33 276.66-15.16 274.14-16.99 269.9-16.99L269.9-16.99Q269.43-16.99 262.82-16.65ZM258.67 0L258.67-34.69 270.9-34.69Q272.68-34.69 274.16-34.31 275.63-33.94 276.6-33.35 277.56-32.76 278.31-31.96 279.05-31.15 279.44-30.4 279.83-29.64 280.08-28.78 280.32-27.93 280.38-27.38 280.44-26.83 280.44-26.34L280.44-26.34Q280.44-24.22 279-22.11 277.56-20 275.95-19.38L275.95-19.38Q279.17-18.8 281.24-16.27 283.3-13.75 283.3-10.52L283.3-10.52Q283.3-9.77 283.17-8.94 283.03-8.11 282.64-7.06 282.25-6.01 281.64-5.05 281.03-4.1 279.98-3.16 278.93-2.22 277.58-1.54 276.22-0.85 274.25-0.43 272.29 0 269.95 0L269.95 0 258.67 0ZM293.55-24.12L294.31-22.31Q297.36-24.58 301.05-24.58L301.05-24.58Q303.59-24.58 305.66-23.63L305.66-23.63 304.44-20.43Q302.54-21.17 300.49-21.17L300.49-21.17Q297.43-21.17 294.75-19.48L294.75-19.48 294.75 0 290.74 0 290.74-24.12 293.55-24.12ZM326.24-4.98L326.24-24.12 330.24-24.12 330.24 0 327.44 0 326.58-2.03Q321.97 0.49 318.06 0.49L318.06 0.49Q316.08 0.49 314.62-0.13 313.15-0.76 312.35-1.68 311.54-2.61 311.05-4.04 310.57-5.47 310.43-6.76 310.3-8.06 310.3-9.72L310.3-9.72 310.3-24.12 314.3-24.12 314.3-9.42Q314.3-3.1 319.79-3.1L319.79-3.1Q322.63-3.1 326.24-4.98L326.24-4.98ZM349.72-21L349.72-21Q346.87-21 343.28-19.12L343.28-19.12 343.28 0 339.27 0 339.27-36.89 343.28-36.89 343.28-22.29Q347.55-24.56 351.29-24.56L351.29-24.56Q352.9-24.56 354.18-24.15 355.46-23.73 356.29-23.11 357.12-22.49 357.72-21.5 358.32-20.51 358.62-19.64 358.93-18.77 359.09-17.58 359.24-16.38 359.28-15.63 359.32-14.87 359.32-13.84L359.32-13.84 359.32 0 355.22 0 355.22-14.58Q355.22-21 349.72-21Z" opacity="1" transform="matrix(1,0,0,1,0,0)" fill="#ffffff" class="undefined-text-1" data-fill-palette-color="secondary" id="text-1"></path></svg></g></svg></g></svg></g></svg></g><g transform="matrix(1,0,0,1,0,0.3052409360962969)"><svg viewBox="0 0 122.09637443852085 122.09637443852085" height="122.09637443852085" width="122.09637443852085"><g><svg xmlns="http://www.w3.org/2000/svg" xmlns:xlink="http://www.w3.org/1999/xlink" version="1.1" x="0" y="0" viewBox="1 1 126 126" style="enable-background:new 0 0 128 128;" xml:space="preserve" height="122.09637443852085" width="122.09637443852085" class="icon-icon-0" data-fill-palette-color="accent" id="icon-0"><g fill="#313638" data-fill-palette-color="accent"><path d="M110.937 52.703c-7.691-4.44-16.653-5.62-25.231-3.321-8.267 2.215-15.218 7.411-19.687 14.668 9.403 17.409 3.288 39.323-13.954 49.278-5.771 3.331-12.084 4.915-18.313 4.915-0.632 0-1.264-0.028-1.894-0.062C41.271 123.777 52.257 127 64 127c31.814 0 58.104-23.586 62.378-54.223C124.154 64.602 118.837 57.265 110.937 52.703z" fill="#ffffff" data-fill-palette-color="accent"></path><path d="M64 1c-8.339 0-16.291 1.635-23.575 4.577C34.448 11.591 30.749 19.872 30.749 29c0 18.01 14.396 32.711 32.285 33.226 4.938-8.026 12.624-13.774 21.766-16.224 9.482-2.54 19.386-1.237 27.887 3.671 6.348 3.666 11.181 8.957 14.295 15.043C126.983 64.476 127 64.24 127 64 127 29.206 98.795 1 64 1z" fill="#ffffff" data-fill-palette-color="accent"></path><path d="M50.314 110.297c15.598-9.006 21.13-28.825 12.632-44.574C43.168 65.162 27.249 48.91 27.249 29c0-7.337 2.17-14.175 5.891-19.918C13.961 19.882 1 40.421 1 64c0 20.167 9.486 38.105 24.228 49.636C33.414 115.793 42.419 114.854 50.314 110.297z" fill="#ffffff" data-fill-palette-color="accent"></path></g></svg></g></svg></g></svg></g><defs></defs></svg><rect width="395.52" height="86.79700643297049" fill="none" stroke="none" visibility="hidden"></rect></g></svg></g></svg>